<mxfile host="app.diagrams.net" agent="Mozilla/5.0 (Macintosh; Intel Mac OS X 10_15_7) AppleWebKit/537.36 (KHTML, like Gecko) Chrome/134.0.0.0 Safari/537.36" version="26.0.16">
  <diagram name="第 1 页" id="MthdXvIhQl-pecBn-QEG">
    <mxGraphModel dx="870" dy="614" grid="1" gridSize="10" guides="1" tooltips="1" connect="1" arrows="1" fold="1" page="1" pageScale="1" pageWidth="827" pageHeight="1169" math="0" shadow="0">
      <root>
        <mxCell id="0" />
        <mxCell id="1" parent="0" />
        <mxCell id="XflOVn9j-JNl80lCWjgw-10" value="" style="edgeStyle=orthogonalEdgeStyle;rounded=0;orthogonalLoop=1;jettySize=auto;html=1;" edge="1" parent="1" source="XflOVn9j-JNl80lCWjgw-1" target="XflOVn9j-JNl80lCWjgw-9">
          <mxGeometry relative="1" as="geometry" />
        </mxCell>
        <mxCell id="XflOVn9j-JNl80lCWjgw-1" value="记录日志" style="rounded=1;whiteSpace=wrap;html=1;" vertex="1" parent="1">
          <mxGeometry x="60" y="130" width="120" height="60" as="geometry" />
        </mxCell>
        <mxCell id="XflOVn9j-JNl80lCWjgw-15" value="" style="edgeStyle=orthogonalEdgeStyle;rounded=0;orthogonalLoop=1;jettySize=auto;html=1;" edge="1" parent="1" source="XflOVn9j-JNl80lCWjgw-2" target="XflOVn9j-JNl80lCWjgw-14">
          <mxGeometry relative="1" as="geometry" />
        </mxCell>
        <mxCell id="XflOVn9j-JNl80lCWjgw-2" value="反馈日志" style="rounded=1;whiteSpace=wrap;html=1;" vertex="1" parent="1">
          <mxGeometry x="60" y="440" width="120" height="60" as="geometry" />
        </mxCell>
        <mxCell id="XflOVn9j-JNl80lCWjgw-6" value="" style="edgeStyle=orthogonalEdgeStyle;rounded=0;orthogonalLoop=1;jettySize=auto;html=1;exitX=0.25;exitY=0;exitDx=0;exitDy=0;" edge="1" parent="1" source="XflOVn9j-JNl80lCWjgw-3" target="XflOVn9j-JNl80lCWjgw-5">
          <mxGeometry relative="1" as="geometry" />
        </mxCell>
        <mxCell id="XflOVn9j-JNl80lCWjgw-8" value="" style="edgeStyle=orthogonalEdgeStyle;rounded=0;orthogonalLoop=1;jettySize=auto;html=1;" edge="1" parent="1" source="XflOVn9j-JNl80lCWjgw-3" target="XflOVn9j-JNl80lCWjgw-7">
          <mxGeometry relative="1" as="geometry" />
        </mxCell>
        <mxCell id="XflOVn9j-JNl80lCWjgw-13" style="edgeStyle=orthogonalEdgeStyle;rounded=0;orthogonalLoop=1;jettySize=auto;html=1;exitX=0.75;exitY=0;exitDx=0;exitDy=0;" edge="1" parent="1" source="XflOVn9j-JNl80lCWjgw-3" target="XflOVn9j-JNl80lCWjgw-12">
          <mxGeometry relative="1" as="geometry" />
        </mxCell>
        <mxCell id="XflOVn9j-JNl80lCWjgw-3" value="写入文件" style="rounded=1;whiteSpace=wrap;html=1;" vertex="1" parent="1">
          <mxGeometry x="460" y="130" width="120" height="60" as="geometry" />
        </mxCell>
        <mxCell id="XflOVn9j-JNl80lCWjgw-5" value="性能问题？&lt;br&gt;实时写入日志还是缓冲？" style="whiteSpace=wrap;html=1;rounded=1;" vertex="1" parent="1">
          <mxGeometry x="380" y="20" width="120" height="60" as="geometry" />
        </mxCell>
        <mxCell id="XflOVn9j-JNl80lCWjgw-7" value="写入总大小限制" style="rounded=1;whiteSpace=wrap;html=1;" vertex="1" parent="1">
          <mxGeometry x="660" y="130" width="120" height="60" as="geometry" />
        </mxCell>
        <mxCell id="XflOVn9j-JNl80lCWjgw-11" style="edgeStyle=orthogonalEdgeStyle;rounded=0;orthogonalLoop=1;jettySize=auto;html=1;exitX=1;exitY=0.5;exitDx=0;exitDy=0;entryX=0;entryY=0.5;entryDx=0;entryDy=0;" edge="1" parent="1" source="XflOVn9j-JNl80lCWjgw-9" target="XflOVn9j-JNl80lCWjgw-3">
          <mxGeometry relative="1" as="geometry" />
        </mxCell>
        <mxCell id="XflOVn9j-JNl80lCWjgw-9" value="内容拼上时间、TAG" style="rounded=1;whiteSpace=wrap;html=1;" vertex="1" parent="1">
          <mxGeometry x="260" y="130" width="120" height="60" as="geometry" />
        </mxCell>
        <mxCell id="XflOVn9j-JNl80lCWjgw-12" value="处理多线程同时写入同一份文件" style="rounded=1;whiteSpace=wrap;html=1;" vertex="1" parent="1">
          <mxGeometry x="560" y="20" width="120" height="60" as="geometry" />
        </mxCell>
        <mxCell id="XflOVn9j-JNl80lCWjgw-17" value="" style="edgeStyle=orthogonalEdgeStyle;rounded=0;orthogonalLoop=1;jettySize=auto;html=1;" edge="1" parent="1" source="XflOVn9j-JNl80lCWjgw-14" target="XflOVn9j-JNl80lCWjgw-16">
          <mxGeometry relative="1" as="geometry" />
        </mxCell>
        <mxCell id="XflOVn9j-JNl80lCWjgw-19" style="edgeStyle=orthogonalEdgeStyle;rounded=0;orthogonalLoop=1;jettySize=auto;html=1;exitX=0.5;exitY=1;exitDx=0;exitDy=0;entryX=0.5;entryY=0;entryDx=0;entryDy=0;" edge="1" parent="1" source="XflOVn9j-JNl80lCWjgw-14" target="XflOVn9j-JNl80lCWjgw-18">
          <mxGeometry relative="1" as="geometry" />
        </mxCell>
        <mxCell id="XflOVn9j-JNl80lCWjgw-14" value="拼接中间件日志" style="rounded=1;whiteSpace=wrap;html=1;" vertex="1" parent="1">
          <mxGeometry x="260" y="440" width="120" height="60" as="geometry" />
        </mxCell>
        <mxCell id="XflOVn9j-JNl80lCWjgw-16" value="压缩" style="rounded=1;whiteSpace=wrap;html=1;" vertex="1" parent="1">
          <mxGeometry x="460" y="440" width="120" height="60" as="geometry" />
        </mxCell>
        <mxCell id="XflOVn9j-JNl80lCWjgw-18" value="首次 OTA 上来后的老日志接入" style="rounded=1;whiteSpace=wrap;html=1;" vertex="1" parent="1">
          <mxGeometry x="260" y="550" width="120" height="60" as="geometry" />
        </mxCell>
      </root>
    </mxGraphModel>
  </diagram>
</mxfile>
